<?xml version="1.0" standalone="no"?>
<!DOCTYPE svg PUBLIC "-//W3C//DTD SVG 20010904//EN"
 "http://www.w3.org/TR/2001/REC-SVG-20010904/DTD/svg10.dtd">
<svg version="1.0" xmlns="http://www.w3.org/2000/svg"
 width="1024.000000pt" height="1024.000000pt" viewBox="0 0 1024.000000 1024.000000"
 preserveAspectRatio="xMidYMid meet">
<metadata>
Created by potrace 1.11, written by Peter Selinger 2001-2013
</metadata>
<g transform="translate(0.000000,1024.000000) scale(0.100000,-0.100000)"
fill="#000000" stroke="none">
<path d="M0 5120 l0 -5120 5120 0 5120 0 0 5120 0 5120 -5120 0 -5120 0 0
-5120z m7525 4224 c222 -35 422 -97 620 -194 439 -214 792 -564 999 -991 90
-186 125 -289 179 -529 29 -133 30 -140 31 -425 0 -281 -1 -294 -28 -418 -79
-368 -192 -617 -415 -917 -72 -98 -865 -897 -959 -967 -128 -96 -287 -136
-444 -113 -84 12 -185 45 -235 76 -102 64 -219 200 -248 288 -30 90 -45 167
-45 232 0 83 40 239 77 304 15 25 202 223 433 455 420 424 456 462 511 555
118 199 154 357 137 602 -13 196 -101 388 -248 542 -108 113 -167 157 -294
216 -296 140 -589 124 -891 -49 -73 -42 -156 -121 -933 -896 -469 -467 -866
-868 -882 -890 -157 -220 -218 -438 -192 -681 23 -209 105 -386 256 -552 78
-86 130 -169 158 -250 33 -96 33 -294 0 -399 -49 -156 -198 -311 -349 -364
-69 -25 -184 -49 -230 -49 -64 0 -217 42 -288 78 -139 73 -353 319 -495 570
-101 181 -170 362 -220 582 -42 189 -55 298 -54 490 1 504 163 964 480 1360
80 101 1655 1684 1800 1810 169 146 290 228 472 319 176 89 344 145 572 192
184 38 522 44 725 13z m-1660 -3053 c160 -41 273 -130 439 -344 261 -336 406
-697 451 -1127 19 -170 18 -260 0 -432 -29 -276 -95 -502 -219 -753 -83 -166
-170 -301 -279 -430 -80 -95 -1661 -1677 -1773 -1774 -120 -105 -189 -156
-298 -224 -305 -189 -646 -298 -994 -317 -493 -27 -930 82 -1312 325 -276 176
-554 461 -712 730 -31 52 -121 238 -140 290 -39 102 -89 274 -115 395 -27 121
-28 134 -28 415 1 275 2 296 28 415 76 361 188 611 400 899 85 116 864 905
975 988 128 96 296 138 449 113 82 -13 182 -46 230 -76 102 -64 219 -200 248
-288 30 -90 45 -167 45 -232 0 -89 -41 -242 -83 -313 -21 -35 -174 -196 -443
-465 -229 -230 -431 -440 -456 -476 -142 -203 -194 -398 -177 -658 13 -191
101 -387 243 -539 96 -102 168 -158 266 -208 151 -76 270 -105 431 -105 195 0
369 55 544 170 56 37 1720 1692 1765 1755 178 251 237 516 174 795 -33 151
-125 319 -245 446 -118 127 -168 242 -176 406 -9 186 37 322 152 446 158 171
380 234 610 173z m2225 -3158 c102 -65 340 -220 530 -343 190 -123 487 -315
660 -427 173 -112 316 -207 317 -211 2 -4 -77 -29 -175 -56 -473 -131 -474
-132 -504 -165 -21 -24 -28 -41 -28 -74 0 -45 26 -89 472 -790 85 -134 99
-160 87 -171 -16 -15 -359 -216 -368 -216 -4 0 -116 174 -251 388 -329 522
-347 548 -377 572 -29 22 -82 26 -116 8 -16 -8 -471 -345 -554 -411 -10 -7
-13 203 -13 1047 l0 1056 68 -44 c37 -23 150 -97 252 -163z"/>
</g>
</svg>
